<?xml version="1.0" encoding="UTF-8" standalone="no"?><!DOCTYPE svg PUBLIC "-//W3C//DTD SVG 1.1//EN" "http://www.w3.org/Graphics/SVG/1.1/DTD/svg11.dtd"><svg width="100%" height="100%" viewBox="0 0 1920 1080" version="1.1" xmlns="http://www.w3.org/2000/svg" xmlns:xlink="http://www.w3.org/1999/xlink" xml:space="preserve" xmlns:serif="http://www.serif.com/" style="fill-rule:evenodd;clip-rule:evenodd;stroke-linejoin:round;stroke-miterlimit:1.41421;"><g><circle cx="936.723" cy="516.723" r="500" style="fill:url(#_Radial1);"/><circle cx="936.723" cy="516.723" r="450" style="fill:#fff;"/></g><g><g><rect x="886.804" y="229.244" width="328.781" height="40.214" style="fill:#000001;fill-opacity:0.870588;"/><rect x="967.698" y="823.271" width="164.931" height="40.214" style="fill:#000001;fill-opacity:0.870588;"/><path d="M1215.1,369.566l0,-107.59l-40.695,0l0,107.59l40.695,0Z" style="fill:#000001;fill-opacity:0.870588;"/><path d="M927.695,368.445l0,-107.59l-40.695,0l0,107.59l40.695,0Z" style="fill:#000001;fill-opacity:0.870588;"/><path d="M1071.74,829.7l0,-562.997l-41.098,0l0,562.997l41.098,0Z" style="fill-opacity:0.870588;"/></g><g><rect x="657.86" y="169.96" width="345.565" height="43.196" style="fill:#ff5100;"/><path d="M1003.93,259.266l0,-86.391l-43.196,0l0,86.391l43.196,0Z" style="fill:#ff5100;"/><path d="M1003.93,760.09l0,-86.391l-43.196,0l0,86.391l43.196,0Z" style="fill:#ff5100;"/><rect x="657.86" y="721.348" width="345.565" height="43.196" style="fill:#ff5100;"/><rect x="742.133" y="451.673" width="230" height="43.196" style="fill:#ff5100;"/><path d="M758.761,726.429l0,-514.377l-42.865,0l0,514.377l42.865,0Z" style="fill:#ff5100;"/></g></g><defs><radialGradient id="_Radial1" cx="0" cy="0" r="1" gradientUnits="userSpaceOnUse" gradientTransform="matrix(1000,0,0,1000,436.723,516.723)"><stop offset="0" style="stop-color:#000;stop-opacity:1"/><stop offset="0.47" style="stop-color:#461600;stop-opacity:1"/><stop offset="1" style="stop-color:#ff5100;stop-opacity:1"/></radialGradient></defs></svg>